HIERARCHY
ROOT Hips
{
	OFFSET	0.00	0.00	0.00
	CHANNELS 6 Xposition Yposition Zposition Zrotation Xrotation Yrotation
	JOINT LeftUpLeg
	{
		OFFSET	 0.126116	-0.014019	-0.065224
		CHANNELS 3 Zrotation Xrotation Yrotation
		JOINT LeftLeg
		{
			OFFSET	 0.000000	 0.000000	 0.569914
			CHANNELS 3 Zrotation Xrotation Yrotation
			JOINT LeftFoot
			{
				OFFSET	 0.000000	 0.000000	 0.544423
				CHANNELS 3 Zrotation Xrotation Yrotation
				JOINT LeftToeBase
				{
					OFFSET	 0.000000	 0.000000	 0.207117
					CHANNELS 3 Zrotation Xrotation Yrotation
					End Site
					{
						OFFSET	 0.000000	 0.000000	 0.207117
					}
				}
			}
		}
	}
	JOINT RightUpLeg
	{
		OFFSET	-0.124023	-0.008373	-0.065224
		CHANNELS 3 Zrotation Xrotation Yrotation
		JOINT RightLeg
		{
			OFFSET	 0.000000	 0.000000	 0.570047
			CHANNELS 3 Zrotation Xrotation Yrotation
			JOINT RightFoot
			{
				OFFSET	 0.000000	 0.000000	 0.544354
				CHANNELS 3 Zrotation Xrotation Yrotation
				JOINT RightToeBase
				{
					OFFSET	 0.000000	 0.000000	 0.207540
					CHANNELS 3 Zrotation Xrotation Yrotation
					End Site
					{
						OFFSET	 0.000000	 0.000000	 0.207540
					}
				}
			}
		}
	}
	JOINT Spine
	{
		OFFSET	 0.000184	-0.007763	 0.117403
		CHANNELS 3 Zrotation Xrotation Yrotation
		JOINT Spine1
		{
			OFFSET	 0.000000	 0.000000	 0.137269
			CHANNELS 3 Zrotation Xrotation Yrotation
			JOINT Spine2
			{
				OFFSET	 0.000000	 0.000000	 0.156879
				CHANNELS 3 Zrotation Xrotation Yrotation
				JOINT LeftShoulder
				{
					OFFSET	 0.080501	-0.002496	 0.160144
					CHANNELS 3 Zrotation Xrotation Yrotation
					JOINT LeftArm
					{
						OFFSET	 0.000000	 0.000000	 0.164363
						CHANNELS 3 Zrotation Xrotation Yrotation
						JOINT LeftForeArm
						{
							OFFSET	 0.000000	 0.000000	 0.364576
							CHANNELS 3 Zrotation Xrotation Yrotation
							JOINT LeftHand
							{
								OFFSET	 0.000000	 0.000000	 0.360812
								CHANNELS 3 Zrotation Xrotation Yrotation
								JOINT LeftHandIndex1
								{
									OFFSET	 0.000000	 0.000000	 0.086006
									CHANNELS 3 Zrotation Xrotation Yrotation
									JOINT LeftHandIndex2
									{
										OFFSET	 0.000000	 0.000000	 0.047236
										CHANNELS 3 Zrotation Xrotation Yrotation
										JOINT LeftHandIndex3
										{
											OFFSET	-0.004284	-0.000551	 0.038166
											CHANNELS 3 Zrotation Xrotation Yrotation
											End Site
											{
												OFFSET	-0.004284	-0.000551	 0.038166
											}
										}
									}
								}
							}
						}
					}
				}
				JOINT Neck
				{
					OFFSET	 0.000000	 0.000000	 0.176489
					CHANNELS 3 Zrotation Xrotation Yrotation
					JOINT Head
					{
						OFFSET	 0.000000	-0.001747	 0.077940
						CHANNELS 3 Zrotation Xrotation Yrotation
						End Site
						{
							OFFSET	 0.000000	-0.001747	 0.077940
						}
					}
				}
				JOINT RightShoulder
				{
					OFFSET	-0.080363	 0.000306	 0.159706
					CHANNELS 3 Zrotation Xrotation Yrotation
					JOINT RightArm
					{
						OFFSET	 0.000000	 0.000000	 0.164196
						CHANNELS 3 Zrotation Xrotation Yrotation
						JOINT RightForeArm
						{
							OFFSET	 0.000000	 0.000000	 0.365611
							CHANNELS 3 Zrotation Xrotation Yrotation
							JOINT RightHand
							{
								OFFSET	 0.000000	 0.000000	 0.360648
								CHANNELS 3 Zrotation Xrotation Yrotation
								JOINT RightHandIndex1
								{
									OFFSET	 0.000000	 0.000000	 0.069977
									CHANNELS 3 Zrotation Xrotation Yrotation
									JOINT RightHandIndex2
									{
										OFFSET	 0.000000	 0.000000	 0.052305
										CHANNELS 3 Zrotation Xrotation Yrotation
										JOINT RightHandIndex3
										{
											OFFSET	 0.009002	-0.000782	 0.042196
											CHANNELS 3 Zrotation Xrotation Yrotation
											End Site
											{
												OFFSET	 0.009002	-0.000782	 0.042196
											}
										}
									}
								}
							}
						}
					}
				}
			}
		}
	}
}
MOTION
Frames:    6
Frame Time: 0.03333334
 0.000296	 0.019729	 1.271016	-0.002950	 0.003749	 0.174015	-1.477546	-1.796747	 177.863000	 1.470901	-12.145580	-0.709391	-7.082713	 71.268180	 0.948015	-2.385833	 28.452760	 0.000004	 1.312657	-1.867266	-178.146300	-1.462059	-11.777940	 0.674656	 6.749609	 70.929210	-0.791237	 2.384658	 28.388730	 0.000004	-5.061332	 2.666097	 0.293448	-2.158277	 3.861590	-0.796478	 6.533281	-4.749834	 1.422905	-91.776180	 78.527500	 180.000000	 59.296280	 40.459750	-60.348590	-8.564143	 0.195931	-0.764127	-30.460510	-11.047490	-4.477229	-2.635965	 4.993658	 6.788941	-5.165319	 0.784187	 3.516649	-5.225038	 0.466231	 0.424329	-0.000002	-3.783157	-0.089647	 6.350110	 4.513423	-0.250510	 89.782110	 78.203890	 180.000000	-64.038060	 41.876620	 57.116920	 7.911353	 3.805374	 8.930405	 30.633630	-11.916290	 9.064812	 6.112037	 4.509576	-0.364401	 4.968462	 1.518543	-9.347576	 5.168945	 0.703820	 2.021906
 0.000300	 0.019747	 1.270930	-0.002467	 0.004600	 0.174479	-1.152171	-1.910758	 177.846300	 1.468331	-12.346310	-0.721484	-7.139372	 71.353800	 1.008830	-2.385833	 28.452760	 0.000004	 0.986529	-1.981747	-178.132200	-1.459565	-11.983400	 0.686772	 6.801817	 71.018380	-0.846292	 2.384658	 28.388730	 0.000004	-6.325007	 2.572833	 0.277984	-2.135753	 4.184505	-0.764322	 6.463006	-5.170057	 1.435016	-91.776190	 78.527450	-180.000000	 59.318320	 40.478130	-60.120560	-9.225852	 0.213387	-1.248770	-30.925620	-11.879640	-4.576093	-2.635965	 4.993658	 6.788941	-5.165319	 0.784187	 3.516649	-5.225038	 0.466231	 0.424329	-0.000002	-3.783157	-0.089647	 6.264727	 4.326822	-0.236908	 89.782120	 78.203900	 180.000000	-63.767380	 41.080670	 58.951350	 7.626498	 3.379589	 8.540455	 31.263250	-13.437950	 8.789697	 6.112037	 4.509576	-0.364401	 4.968462	 1.518543	-9.347576	 5.168945	 0.703820	 2.021906
 0.000301	 0.019771	 1.270881	-0.001961	 0.005444	 0.173020	-0.833020	-2.018462	 177.831400	 1.465893	-12.534320	-0.732827	-7.192885	 71.433280	 1.066450	-2.385833	 28.452760	 0.000004	 0.667150	-2.093615	-178.116600	-1.457083	-12.183900	 0.698615	 6.852845	 71.105350	-0.899884	 2.384658	 28.388730	 0.000004	-7.716202	 2.482718	 0.261892	-2.094568	 4.496452	-0.726510	 6.335963	-5.580079	 1.432767	-91.776160	 78.527450	 180.000000	 59.286460	 40.493280	-59.821040	-9.968958	 0.247941	-1.799205	-31.455700	-12.813310	-4.703694	-2.635965	 4.993658	 6.788941	-5.165319	 0.784187	 3.516649	-5.225038	 0.466231	 0.424329	-0.000002	-3.783157	-0.089647	 6.124984	 4.153031	-0.222302	 89.782100	 78.203900	 180.000000	-62.374850	 39.742290	 59.741200	 6.808992	 4.088120	 11.005100	 31.931550	-15.233140	 8.436652	 6.112037	 4.509576	-0.364401	 4.968462	 1.518543	-9.347576	 5.168945	 0.703820	 2.021906
 0.000296	 0.019805	 1.270846	-0.001458	 0.006230	 0.169818	-0.527449	-2.118315	 177.818600	 1.463603	-12.707360	-0.743282	-7.242460	 71.505810	 1.120069	-2.385833	 28.452760	 0.000004	 0.361899	-2.200891	-178.100200	-1.454670	-12.376040	 0.709980	 6.901791	 71.188730	-0.951091	 2.384658	 28.388730	 0.000004	-9.156013	 2.398360	 0.246022	-2.037446	 4.788541	-0.685074	 6.160618	-5.967600	 1.416655	-91.776230	 78.527450	-180.000000	 59.198830	 40.489970	-59.448360	-10.839210	 0.301158	-2.385852	-31.942930	-13.783700	-4.844314	-2.635965	 4.993658	 6.788941	-5.165319	 0.784187	 3.516649	-5.225038	 0.466231	 0.424329	-0.000002	-3.783157	-0.089647	 5.940007	 3.996049	-0.207423	 89.782110	 78.203890	 180.000000	-59.797890	 37.899810	 60.269930	 5.249213	 5.308455	 15.300520	 31.888790	-17.259080	 7.724762	 6.112037	 4.509576	-0.364401	 4.968462	 1.518543	-9.347576	 5.168945	 0.703820	 2.021906
 0.000287	 0.019851	 1.270810	-0.000933	 0.006987	 0.164723	-0.205686	-2.216807	 177.806400	 1.461351	-12.875860	-0.753477	-7.274260	 71.576100	 1.168328	-2.385833	 28.452760	 0.000004	 0.064837	-2.309171	-178.082700	-1.452179	-12.570750	 0.721515	 6.966451	 71.273050	-1.006759	 2.384658	 28.388730	 0.000004	-10.690630	 2.315569	 0.229889	-1.962074	 5.075328	-0.638724	 5.930158	-6.351540	 1.385821	-91.776220	 78.527420	-180.000000	 59.048190	 40.467720	-58.980750	-11.746030	 0.379806	-3.034253	-32.540560	-14.835570	-5.029580	-2.635965	 4.993658	 6.788941	-5.165319	 0.784187	 3.516649	-5.225038	 0.466231	 0.424329	-0.000002	-3.783157	-0.089647	 5.702892	 3.847318	-0.191713	 89.782140	 78.203890	 180.000000	-56.742890	 35.903720	 64.021940	 3.282026	 4.832200	 15.902670	 31.034550	-19.534340	 6.517137	 6.112037	 4.509576	-0.364401	 4.968462	 1.518543	-9.347576	 5.168945	 0.703820	 2.021906
 0.000274	 0.019896	 1.270579	-0.000409	 0.007688	 0.157447	 0.108898	-2.313771	 177.796600	 1.459098	-13.041860	-0.763533	-7.323842	 71.644490	 1.221160	-2.385833	 28.452760	 0.000004	-0.250397	-2.421067	-178.062300	-1.449572	-12.771080	 0.733400	 7.016253	 71.360210	-1.059594	 2.384658	 28.388730	 0.000004	-12.298960	 2.234452	 0.213845	-1.867067	 5.356545	-0.587396	 5.640639	-6.731417	 1.338629	-91.776160	 78.527420	 180.000000	 58.819310	 40.414050	-58.388600	-12.744280	 0.491335	-3.748612	-33.202690	-15.947380	-5.257513	-2.635965	 4.993658	 6.788941	-5.165319	 0.784187	 3.516649	-5.225038	 0.466231	 0.424329	-0.000002	-3.783157	-0.089647	 5.410427	 3.706656	-0.175213	 89.782150	 78.203850	 180.000000	-52.369820	 33.338200	 67.547490	 0.895642	 4.744159	 17.976630	 29.551860	-21.676200	 5.070438	 6.112037	 4.509576	-0.364401	 4.968462	 1.518543	-9.347576	 5.168945	 0.703820	 2.021906
